{"title":"Killjoys S02E09 1080p WEB-DL HEVC DD5.1 x265","uid":15681741,"size":735484162,"categoryP":"video","categoryS":"hd___tv_shows","magnet":"?xt=urn:btih:38a8310c8914a3723201b152275346d1ffeb41e4&amp;dn=Killjoys+S02E09+1080p+WEB-DL+HEVC+DD5.1+x265&amp;tr=udp%3A%2F%2Ftracker.leechers-paradise.org%3A6969&amp;tr=udp%3A%2F%2Fzer0day.ch%3A1337&amp;tr=udp%3A%2F%2Fopen.demonii.com%3A1337&amp;tr=udp%3A%2F%2Ftracker.coppersurfer.tk%3A6969&amp;tr=udp%3A%2F%2Fexodus.desync.com%3A6969","seeders":9,"leechers":1,"uploader":"nayhtut","files":1,"time":1472327961,"description":"[Screenshots]\r\n \nhttps://s12.postimg.org/beqwp2ef1/Killjoys_S02_E09_1080p_WEB_DL_HEVC_DD5_1_x265_004.jpg \nhttps://s12.postimg.org/yu8tuey65/Killjoys_S02_E09_1080p_WEB_DL_HEVC_DD5_1_x265_007.jpg \nhttps://s12.postimg.org/we70gkg3h/Killjoys_S02_E09_1080p_WEB_DL_HEVC_DD5_1_x265_001.jpg\r\n\r\n\r\nSource: Killjoys S02E08 1080p WEB-DL DD5.1 H.264-FOCUS (3.16 GB)\r\n\r\n\r\n__--__--__--__--__--__--__--__--__--__--__--__--__--\r\n\r\n\r\nComplete name                            : Killjoys.S02E09.1080p.WEB-DL.HEVC.DD5.1.x265.mkv\r\nFormat                                   : Matroska\r\nFormat version                           : Version 4 / Version 2\r\nFile size                                : 701 MiB\r\nDuration                                 : 43mn 2s\r\nOverall bit rate                         : 2 279 Kbps\r\nWriting application                      : Lavf57.25.100\r\nWriting library                          : Lavf57.25.100\r\n\r\nVideo\r\n\r\nID                                       : 1\r\nFormat                                   : V_MPEGH/ISO/HEVC\r\nCodec ID                                 : V_MPEGH/ISO/HEVC\r\nDuration                                 : 43mn 2s\r\nBit rate                                 : 1 849 Kbps\r\nWidth                                    : 1 920 pixels\r\nHeight                                   : 1 080 pixels\r\nDisplay aspect ratio                     : 16:9\r\nFrame rate                               : 25.000 fps\r\nBits/(Pixel*Frame)                       : 0.036\r\nStream size                              : 569 MiB (81%)\r\nWriting library                          : Lavc57.48.101 libx265\r\nDefault                                  : Yes\r\nForced                                   : No\r\nDURATION                                 : 00:43:02.131000000\r\n\r\nAudio\r\n\r\nID                                       : 2\r\nFormat                                   : AC-3\r\nFormat/Info                              : Audio Coding 3\r\nMode extension                           : CM (complete main)\r\nFormat settings, Endianness              : Big\r\nCodec ID                                 : A_AC3\r\nDuration                                 : 43mn 2s\r\nBit rate mode                            : Constant\r\nBit rate                                 : 384 Kbps\r\nChannel(s)                               : 6 channels\r\nChannel positions                        : Front: L C R, Side: L R, LFE\r\nSampling rate                            : 48.0 KHz\r\nBit depth                                : 16 bits\r\nCompression mode                         : Lossy\r\nStream size                              : 118 MiB (17%)\r\nWriting library                          : Lavc57.24.102 ac3\r\nLanguage                                 : English\r\nDefault                                  : Yes\r\nForced                                   : No\r\nDURATION                                 : 00:43:02.111000000\r\n\r\nText\r\n\r\nID                                       : 3\r\nFormat                                   : ASS\r\nCodec ID                                 : S_TEXT/ASS\r\nCodec ID/Info                            : Advanced Sub Station Alpha\r\nCompression mode                         : Lossless\r\nWriting library                          : Lavc57.48.101 ssa\r\nLanguage                                 : English\r\nDefault                                  : No\r\nForced                                   : No\r\nDURATION                                 : 00:42:43.479000000\r\n\r\n__--__--__--__--__--__--__--__--__--__--__--__--__--\r\n\r\n\r\nIMDb: http://www.imdb.com/title/tt3952222\r\n\r\n\r\n __--__--__--__--__--__--__--__--__--__--__--__--__--\r\n\r\n\r\nAfter adding torrent with magnet link,\r\n\r\nplease add this  following trackers list to the torrent for better seeds.\r\n\r\n\r\nudp://tracker.coppersurfer.tk:6969/announce\r\n\r\nudp://tracker.opentrackr.org:1337/announce\r\n \nhttp://tracker.baravik.org:6970/announce\r\n \nhttp://tracker2.wasabii.com.tw:6969/announce\r\n\r\nudp://9.rarbg.me:2710/announce\r\n\r\n\r\n__--__--__--__--__--__--__--__--__--__--__--__--__--\r\n\r\n\r\nEnjoy!","torrent":{"xt":"urn:btih:38a8310c8914a3723201b152275346d1ffeb41e4","amp;dn":"Killjoys+S02E09+1080p+WEB-DL+HEVC+DD5.1+x265","amp;tr":["udp%3A%2F%2Ftracker.leechers-paradise.org%3A6969","udp%3A%2F%2Fzer0day.ch%3A1337","udp%3A%2F%2Fopen.demonii.com%3A1337","udp%3A%2F%2Ftracker.coppersurfer.tk%3A6969","udp%3A%2F%2Fexodus.desync.com%3A6969"],"infoHash":"38a8310c8914a3723201b152275346d1ffeb41e4","infoHashBuffer":{"type":"Buffer","data":[56,168,49,12,137,20,163,114,50,1,177,82,39,83,70,209,255,235,65,228]},"announce":[],"urlList":[]}}